<svg width="104" height="104" viewBox="0 0 104 104" fill="none" xmlns="http://www.w3.org/2000/svg">
    <g filter="url(#filter0_d_271_175)">
    <g clip-path="url(#clip0_271_175)">
    <rect x="4" width="96" height="96" rx="48" fill="#19224D"/>
    <path d="M17.7159 44.0909C17.6307 43.3712 17.285 42.8125 16.679 42.4148C16.0729 42.017 15.3295 41.8182 14.4489 41.8182C13.8049 41.8182 13.2415 41.9223 12.7585 42.1307C12.2803 42.339 11.9063 42.6255 11.6364 42.9901C11.3712 43.3546 11.2386 43.7689 11.2386 44.233C11.2386 44.6212 11.331 44.955 11.5156 45.2344C11.705 45.509 11.9465 45.7386 12.2401 45.9233C12.5336 46.1032 12.8414 46.2524 13.1634 46.3707C13.4853 46.4844 13.7812 46.5767 14.0511 46.6477L15.5284 47.0455C15.9072 47.1449 16.3286 47.2822 16.7926 47.4574C17.2614 47.6326 17.7088 47.8717 18.1349 48.1747C18.5658 48.473 18.9209 48.8565 19.2003 49.3253C19.4796 49.794 19.6193 50.3693 19.6193 51.0511C19.6193 51.8371 19.4134 52.5473 19.0014 53.1818C18.5942 53.8163 17.9976 54.3205 17.2116 54.6946C16.4304 55.0687 15.4811 55.2557 14.3636 55.2557C13.322 55.2557 12.42 55.0876 11.6577 54.7514C10.9001 54.4152 10.3035 53.9465 9.8679 53.3452C9.43703 52.7438 9.19318 52.0455 9.13636 51.25H10.9545C11.0019 51.7992 11.1866 52.2538 11.5085 52.6136C11.8352 52.9687 12.2472 53.2339 12.7443 53.4091C13.2462 53.5795 13.786 53.6648 14.3636 53.6648C15.036 53.6648 15.6397 53.5559 16.1747 53.3381C16.7098 53.1155 17.1335 52.8078 17.446 52.4148C17.7585 52.017 17.9148 51.553 17.9148 51.0227C17.9148 50.5398 17.7798 50.1468 17.5099 49.8438C17.2401 49.5407 16.8849 49.2945 16.4446 49.1051C16.0043 48.9157 15.5284 48.75 15.017 48.608L13.2273 48.0966C12.0909 47.7699 11.1913 47.3035 10.5284 46.6974C9.86553 46.0914 9.53409 45.2983 9.53409 44.3182C9.53409 43.5038 9.75426 42.7936 10.1946 42.1875C10.6397 41.5767 11.2363 41.1032 11.9844 40.767C12.7372 40.4261 13.5777 40.2557 14.5057 40.2557C15.4432 40.2557 16.2765 40.4238 17.0057 40.7599C17.7348 41.0914 18.3125 41.5459 18.7386 42.1236C19.1695 42.7012 19.3968 43.357 19.4205 44.0909H17.7159ZM21.1119 55H19.2653L24.6062 40.4545H26.4244L31.7653 55H29.9187L25.5721 42.7557H25.4585L21.1119 55ZM21.7937 49.3182H29.2369V50.8807H21.7937V49.3182ZM43.565 40.4545V55H41.8604L33.9343 43.5795H33.7923V55H32.0309V40.4545H33.7354L41.69 51.9034H41.832V40.4545H43.565ZM45.0895 55V40.4545H50.1747C51.188 40.4545 52.0237 40.6297 52.6818 40.9801C53.34 41.3258 53.83 41.7921 54.152 42.3793C54.474 42.9616 54.6349 43.608 54.6349 44.3182C54.6349 44.9432 54.5237 45.4593 54.3011 45.8665C54.0833 46.2737 53.7945 46.5956 53.4347 46.8324C53.0795 47.0691 52.6937 47.2443 52.277 47.358V47.5C52.7221 47.5284 53.1695 47.6847 53.6193 47.9688C54.0691 48.2528 54.4455 48.66 54.7486 49.1903C55.0516 49.7206 55.2031 50.3693 55.2031 51.1364C55.2031 51.8655 55.0374 52.5213 54.706 53.1037C54.3745 53.6861 53.8513 54.1477 53.1364 54.4886C52.4214 54.8295 51.491 55 50.3452 55H45.0895ZM46.8509 53.4375H50.3452C51.4957 53.4375 52.3125 53.215 52.7955 52.7699C53.2831 52.3201 53.527 51.7756 53.527 51.1364C53.527 50.6439 53.4015 50.1894 53.1506 49.7727C52.8996 49.3513 52.5421 49.0152 52.0781 48.7642C51.6141 48.5085 51.0649 48.3807 50.4304 48.3807H46.8509V53.4375ZM46.8509 46.8466H50.1179C50.6482 46.8466 51.1264 46.7424 51.5526 46.5341C51.9834 46.3258 52.3243 46.0322 52.5753 45.6534C52.831 45.2746 52.9588 44.8295 52.9588 44.3182C52.9588 43.679 52.7363 43.1368 52.2912 42.6918C51.8461 42.242 51.1406 42.017 50.1747 42.017H46.8509V46.8466Z" fill="white"/>
    <g filter="url(#filter1_d_271_175)">
    <rect x="59" y="34" width="39" height="28" rx="14" fill="white"/>
    <path d="M68.3295 40.4545H70.0909V50.8523C70.0909 51.7803 69.9205 52.5687 69.5795 53.2173C69.2386 53.866 68.758 54.3584 68.1378 54.6946C67.5175 55.0308 66.786 55.1989 65.9432 55.1989C65.1477 55.1989 64.4399 55.0545 63.8196 54.7656C63.1993 54.4721 62.7116 54.0554 62.3565 53.5156C62.0014 52.9759 61.8239 52.3343 61.8239 51.5909H63.5568C63.5568 52.0028 63.6586 52.3627 63.8622 52.6705C64.0705 52.9735 64.3546 53.2102 64.7145 53.3807C65.0743 53.5511 65.4839 53.6364 65.9432 53.6364C66.4498 53.6364 66.8807 53.5298 67.2358 53.3168C67.5909 53.1037 67.8608 52.7912 68.0455 52.3793C68.2348 51.9626 68.3295 51.4536 68.3295 50.8523V40.4545ZM81.1662 40.4545H82.9276V50.0852C82.9276 51.0795 82.6932 51.9673 82.2244 52.7486C81.7604 53.5251 81.1046 54.1383 80.2571 54.5881C79.4096 55.0331 78.4152 55.2557 77.2741 55.2557C76.133 55.2557 75.1387 55.0331 74.2912 54.5881C73.4437 54.1383 72.7855 53.5251 72.3168 52.7486C71.8527 51.9673 71.6207 51.0795 71.6207 50.0852V40.4545H73.3821V49.9432C73.3821 50.6534 73.5384 51.2855 73.8509 51.8395C74.1634 52.3887 74.6084 52.822 75.1861 53.1392C75.7685 53.4517 76.4645 53.608 77.2741 53.608C78.0838 53.608 78.7798 53.4517 79.3622 53.1392C79.9446 52.822 80.3897 52.3887 80.6974 51.8395C81.0099 51.2855 81.1662 50.6534 81.1662 49.9432V40.4545ZM84.445 55V40.4545H89.3597C90.4961 40.4545 91.4289 40.6487 92.158 41.0369C92.8872 41.4205 93.427 41.9484 93.7773 42.6207C94.1277 43.2931 94.3029 44.0578 94.3029 44.9148C94.3029 45.7718 94.1277 46.5317 93.7773 47.1946C93.427 47.8575 92.8896 48.3783 92.1651 48.7571C91.4407 49.1312 90.515 49.3182 89.3881 49.3182H85.4109V47.7273H89.3313C90.1078 47.7273 90.7328 47.6136 91.2063 47.3864C91.6845 47.1591 92.0302 46.8371 92.2433 46.4205C92.4611 45.9991 92.57 45.4972 92.57 44.9148C92.57 44.3324 92.4611 43.8234 92.2433 43.3878C92.0255 42.9522 91.6774 42.616 91.1992 42.3793C90.721 42.1378 90.0889 42.017 89.3029 42.017H86.2063V55H84.445ZM91.2915 48.4659L94.8711 55H92.8256L89.3029 48.4659H91.2915Z" fill="#19224D"/>
    </g>
    </g>
    </g>
    <defs>
    <filter id="filter0_d_271_175" x="0" y="0" width="104" height="104" filterUnits="userSpaceOnUse" color-interpolation-filters="sRGB">
    <feFlood flood-opacity="0" result="BackgroundImageFix"/>
    <feColorMatrix in="SourceAlpha" type="matrix" values="0 0 0 0 0 0 0 0 0 0 0 0 0 0 0 0 0 0 127 0" result="hardAlpha"/>
    <feOffset dy="4"/>
    <feGaussianBlur stdDeviation="2"/>
    <feComposite in2="hardAlpha" operator="out"/>
    <feColorMatrix type="matrix" values="0 0 0 0 0 0 0 0 0 0 0 0 0 0 0 0 0 0 0.1 0"/>
    <feBlend mode="normal" in2="BackgroundImageFix" result="effect1_dropShadow_271_175"/>
    <feBlend mode="normal" in="SourceGraphic" in2="effect1_dropShadow_271_175" result="shape"/>
    </filter>
    <filter id="filter1_d_271_175" x="55" y="34" width="47" height="36" filterUnits="userSpaceOnUse" color-interpolation-filters="sRGB">
    <feFlood flood-opacity="0" result="BackgroundImageFix"/>
    <feColorMatrix in="SourceAlpha" type="matrix" values="0 0 0 0 0 0 0 0 0 0 0 0 0 0 0 0 0 0 127 0" result="hardAlpha"/>
    <feOffset dy="4"/>
    <feGaussianBlur stdDeviation="2"/>
    <feComposite in2="hardAlpha" operator="out"/>
    <feColorMatrix type="matrix" values="0 0 0 0 0 0 0 0 0 0 0 0 0 0 0 0 0 0 0.1 0"/>
    <feBlend mode="normal" in2="BackgroundImageFix" result="effect1_dropShadow_271_175"/>
    <feBlend mode="normal" in="SourceGraphic" in2="effect1_dropShadow_271_175" result="shape"/>
    </filter>
    <clipPath id="clip0_271_175">
    <rect x="4" width="96" height="96" rx="48" fill="white"/>
    </clipPath>
    </defs>
    </svg>
    